<?xml version="1.0" encoding="UTF-8"?><svg id="Layer_2" xmlns="http://www.w3.org/2000/svg" viewBox="0 0 188.96 319.37"><defs><style>.cls-1{fill:#345a9a;}</style></defs><g id="Layer_1-2"><path class="cls-1" d="M147.15,200.64c-15.5-14.86-30.59-27.54-45.18-39.8l-1.37-1.15,1.37-1.15c14.59-12.26,29.68-24.95,45.18-39.8,21.5-20.6,41.81-40.07,41.81-114.9,0-2.12-1.71-3.83-3.83-3.83s-3.83,1.71-3.83,3.83c0,9.25-.31,17.6-.89,25.16H90.93c-2.12,0-3.83,1.71-3.83,3.83s1.71,3.83,3.83,3.83h88.79c-1.26,11.62-3.23,21.23-5.77,29.38-.54-.29-1.15-.48-1.81-.48h-20.39c-2.12,0-3.83,1.71-3.83,3.83s1.72,3.83,3.83,3.83h19.69c-4.9,12.48-11.31,21.19-18.46,28.91H74.15c-2.12,0-3.83,1.71-3.83,3.83s1.72,3.83,3.83,3.83h71.25c-1.17,1.14-2.35,2.27-3.55,3.41-15.32,14.68-30.31,27.28-44.81,39.47l-2.56,2.15-2.56-2.15c-14.5-12.19-29.49-24.79-44.81-39.47-11.55-11.07-22.24-21.32-29.58-39.98H119.03c2.12,0,3.83-1.71,3.83-3.83s-1.72-3.83-3.83-3.83H14.87c-2.46-8.05-4.39-17.51-5.62-28.9H62.41c2.12,0,3.83-1.72,3.83-3.83s-1.72-3.83-3.83-3.83H8.55c-.58-7.57-.89-15.91-.89-25.16C7.66,1.71,5.95,0,3.83,0S0,1.71,0,3.83C0,78.66,20.31,98.13,41.81,118.73c15.5,14.85,30.59,27.54,45.18,39.8l1.37,1.15-1.37,1.15c-14.59,12.27-29.68,24.95-45.18,39.8C20.31,221.24,0,240.71,0,315.54c0,2.12,1.71,3.83,3.83,3.83s3.83-1.72,3.83-3.83c0-8.68,.27-16.55,.78-23.74H78.77c2.12,0,3.83-1.72,3.83-3.83s-1.71-3.83-3.83-3.83H9.1c1.16-11.36,2.99-20.83,5.35-28.91,.02,0,.03,0,.05,0H48.57c2.12,0,3.83-1.71,3.83-3.83s-1.72-3.83-3.83-3.83H16.99c4.69-12.52,10.86-21.32,17.79-29,.27,.06,.55,.1,.84,.1H114.2c2.12,0,3.83-1.72,3.83-3.83s-1.72-3.83-3.83-3.83H42.1c1.65-1.61,3.32-3.22,5.01-4.84,15.32-14.68,30.31-27.28,44.81-39.47l2.56-2.15,2.56,2.15c14.5,12.19,29.49,24.79,44.81,39.47,11.84,11.35,22.78,21.84,30.12,41.41H78.77c-2.12,0-3.83,1.71-3.83,3.83s1.71,3.83,3.83,3.83h93.37c.81,0,1.56-.26,2.18-.69,2.46,8.22,4.35,17.91,5.55,29.59h-56.22c-2.12,0-3.83,1.71-3.83,3.83s1.72,3.83,3.83,3.83h56.88c.51,7.19,.78,15.06,.78,23.74,0,2.12,1.72,3.83,3.83,3.83s3.83-1.72,3.83-3.83c0-74.83-20.31-94.3-41.81-114.9Z"/></g></svg>