<?xml version="1.0" encoding="UTF-8"?><svg id="Layer_2" xmlns="http://www.w3.org/2000/svg" viewBox="0 0 276.89 72.72"><defs><style>.cls-1{fill:#fff;}</style></defs><g id="Layer_1-2"><g><path class="cls-1" d="M16.93,.95c13.1,0,16.93,6.42,16.93,20.4v4.37h-13.63v-7.48c0-3.92-.18-5.7-3.3-5.7s-3.3,1.6-3.3,5.26v28.78c0,3.65,.18,5.35,3.3,5.35s3.3-1.78,3.3-5.79v-10.51h13.63v7.4c0,13.99-3.83,20.41-16.93,20.41S0,57,0,43.01V21.36C0,7.37,3.83,.95,16.93,.95Z"/><path class="cls-1" d="M50.25,41.14c.18-11.76,1.34-20.76,3.3-26.82,1.96,6.06,3.12,15.06,3.3,26.82h-6.59Zm-13.37,21.47h13.37v-10.07h6.59v10.07h13.46v-11.94c0-20.76-2.67-36.71-10.69-48.92h-12.03c-8.02,12.12-10.69,28.07-10.69,48.92v11.94Z"/><path class="cls-1" d="M87.59,24.83V12.45h2.67c3.47,0,4.72,1.78,4.72,5.97,0,4.99-.98,6.42-5.17,6.42h-2.23ZM74.58,1.75V62.61h13.46v-27.44h3.3l3.48,27.44h14.08l-4.99-30.21c2.67-1.43,4.37-5.52,4.37-12.3,0-13.1-3.74-18.36-15.68-18.36h-18Z"/><path class="cls-1" d="M162.59,1.75V51.03h13.9v11.58h-27.36V1.75h13.46Z"/><path class="cls-1" d="M191.46,1.75V62.61h-13.46V1.75h13.46Z"/><path class="cls-1" d="M209.9,1.75c2.41,3.92,4.99,9.27,7.57,16.04V1.75h13.37V62.61h-13.37v-11.94c0-10.34-2.23-19.87-6.59-28.42V62.61h-13.46V1.75h12.47Z"/><path class="cls-1" d="M248.57,41.14c.18-11.76,1.34-20.76,3.29-26.82,1.96,6.06,3.12,15.06,3.3,26.82h-6.6Zm-13.37,21.47h13.37v-10.07h6.6v10.07h13.45v-11.94c0-20.76-2.67-36.71-10.69-48.92h-12.03c-8.02,12.12-10.69,28.07-10.69,48.92v11.94Z"/><path class="cls-1" d="M112.1,18.07V54.65c0,9.96,7.14,18.07,15.92,18.07s15.92-8.11,15.92-18.07V18.07c0-9.96-7.14-18.07-15.92-18.07s-15.92,8.11-15.92,18.07Zm7.72,36.58V18.07c0-5.71,3.68-10.35,8.2-10.35s8.2,4.64,8.2,10.35V54.65c0,5.71-3.68,10.35-8.2,10.35s-8.2-4.64-8.2-10.35Z"/><path class="cls-1" d="M121.49,14.62s3.13,.65,3.7,1.51c.57,.86,.99,1.27,.8,2.03-.19,.77-.49,1.72-.49,2.2s-.08,.68,.3,.49c.38-.19,1.92-.38,2.21,0,.29,.38,.58,.77,1.25,.77s.96-.1,1.25-.48c.29-.38,.38-.67,.19-1.06-.19-.38-.4-2.02-.1-2.88,.89-2.52,4.12-2.4,4.12-2.4,0,0-.69,.62-1.07,1.48-.38,.86-1.5,2.36-1.5,3.51s-.31,4.7-.21,5.27c.1,.58-.04,1.2-.35,2.2-.21,.67-.75,1.8-.46,2.48,.29,.67,.43,1.44,.72,2.01,.29,.57-.01,1.08-.21,1.75-.19,.67-.95,1.24-.95,1.72s-.09,.69,.48,1.17c.57,.48,1.05,.85,.96,1.32-.1,.48-.36,1.27-.65,2.23-.29,.96-1.05,2.61-1.08,3.2-.03,.43-.46,1.55-.19,2.34,.24,.69,.96,1.15,1.53,1.92,.58,.77,2.99,2.04,1.85,4.77-.74,1.79-2.43,3.95-3.19,5.01-.77,1.05-1.73,2.3-1.82,2.59-.1,.29-.09,.5-.09,.5,0,0-.96-1.94-1.44-2.42-.33-.32-2.05-2.53-3.09-4.75-.5-1.06-.88-2.29-.67-3.09,.18-.67,.88-1.8,1.49-2.42,.58-.58,1.29-1.19,1.44-1.55,.37-.9,.11-2.01,.11-2.01,0,0-.52-1.51-.24-1.71,.29-.19-.33-2.11-.33-2.11,0,0-2.17-2.78-.88-3.45,.61-.32,1.03-.39,1.14-.77,.21-.72-1.81-2.84-1.5-4.02,.17-.65,.71-1.34,.9-1.62,.19-.29,.42-.92,.13-1.78-.29-.86-1.04-2.4-1.24-4.13-.11-.99-.11-2.4-.21-3.4-.07-.75-.26-1.19-.31-1.55-.12-.86,.57-1.19-.57-2.73-.69-.94-1.74-2.13-1.74-2.13Z"/></g><path class="cls-1" d="M265.29,5.18c.33-.72,.77-1.34,1.33-1.85,.56-.51,1.2-.9,1.93-1.18,.73-.28,1.49-.42,2.29-.42s1.56,.14,2.29,.42c.73,.28,1.37,.67,1.93,1.18,.56,.51,1,1.13,1.33,1.85s.5,1.53,.5,2.43-.17,1.72-.5,2.44c-.33,.72-.77,1.34-1.33,1.86-.56,.51-1.2,.91-1.93,1.18-.73,.27-1.49,.41-2.29,.41s-1.56-.14-2.29-.41c-.73-.27-1.37-.67-1.93-1.18-.56-.51-1-1.13-1.33-1.86-.33-.72-.5-1.54-.5-2.44s.17-1.7,.5-2.43Zm1.46,4.29c.23,.57,.55,1.06,.95,1.47s.87,.74,1.41,.97c.54,.23,1.12,.35,1.74,.35s1.18-.12,1.73-.35c.54-.23,1.01-.55,1.41-.97,.4-.42,.72-.91,.95-1.47,.24-.57,.35-1.19,.35-1.86s-.12-1.29-.35-1.85c-.24-.56-.55-1.05-.95-1.46-.4-.41-.87-.73-1.41-.96-.54-.23-1.12-.35-1.73-.35s-1.2,.12-1.74,.35c-.54,.23-1.01,.55-1.41,.96-.4,.41-.71,.9-.95,1.46-.23,.56-.35,1.18-.35,1.85s.12,1.29,.35,1.86Zm4.24-5.17c.83,0,1.47,.15,1.91,.44,.45,.29,.67,.8,.67,1.51,0,.3-.05,.56-.13,.78-.09,.22-.21,.39-.37,.53-.16,.14-.34,.24-.55,.32s-.44,.12-.68,.14l1.76,2.88h-1.37l-1.61-2.82h-.82v2.82h-1.31V4.3h2.49Zm-.02,2.76c.38,0,.69-.05,.93-.16,.24-.1,.36-.36,.36-.76,0-.18-.04-.32-.13-.43-.08-.1-.19-.19-.32-.24-.13-.06-.28-.1-.44-.12-.16-.02-.32-.03-.47-.03h-1.1v1.73h1.17Z"/></g></svg>