<?xml version="1.0" encoding="utf-8"?>
<svg version="1.1" xmlns:xlink="http://www.w3.org/1999/xlink" width="24px" height="20px" xmlns="http://www.w3.org/2000/svg">
  <style>.cls-1{fill:#345a9a;}</style>
  <g transform="matrix(1 0 0 1 -927 -95 )">
    <path d="M 8.682692307692307 16.903409090909093  C 9.048076923076923 17.263257575757574  9.230769230769232 17.689393939393938  9.230769230769232 18.18181818181818  C 9.230769230769232 18.674242424242426  9.048076923076923 19.10037878787879  8.682692307692307 19.460227272727273  C 8.317307692307693 19.820075757575758  7.884615384615386 20  7.384615384615385 20  C 6.884615384615385 20  6.451923076923078 19.820075757575758  6.086538461538462 19.460227272727273  C 5.721153846153846 19.10037878787879  5.538461538461538 18.674242424242426  5.538461538461538 18.18181818181818  C 5.538461538461538 17.689393939393938  5.721153846153846 17.263257575757574  6.086538461538462 16.903409090909093  C 6.451923076923078 16.54356060606061  6.884615384615385 16.363636363636363  7.384615384615385 16.363636363636363  C 7.884615384615386 16.363636363636363  8.317307692307693 16.54356060606061  8.682692307692307 16.903409090909093  Z M 21.60576923076923 16.903409090909093  C 21.971153846153843 17.263257575757574  22.153846153846153 17.689393939393938  22.153846153846153 18.18181818181818  C 22.153846153846153 18.674242424242426  21.971153846153843 19.10037878787879  21.60576923076923 19.460227272727273  C 21.240384615384617 19.820075757575758  20.807692307692307 20  20.307692307692307 20  C 19.80769230769231 20  19.375 19.820075757575758  19.009615384615387 19.460227272727273  C 18.64423076923077 19.10037878787879  18.461538461538463 18.674242424242426  18.461538461538463 18.18181818181818  C 18.461538461538463 17.689393939393938  18.64423076923077 17.263257575757574  19.009615384615387 16.903409090909093  C 19.375 16.54356060606061  19.80769230769231 16.363636363636363  20.307692307692307 16.363636363636363  C 20.807692307692307 16.363636363636363  21.240384615384617 16.54356060606061  21.60576923076923 16.903409090909093  Z M 23.725961538461537 2.088068181818181  C 23.908653846153847 2.267992424242422  24 2.4810606060606033  24 2.727272727272727  L 24 10  C 24 10.227272727272727  23.920673076923077 10.428503787878789  23.76201923076923 10.603693181818183  C 23.603365384615387 10.778882575757574  23.408653846153847 10.880681818181817  23.177884615384613 10.909090909090908  L 8.120192307692307 12.642045454545453  C 8.245192307692308 13.210227272727273  8.307692307692307 13.541666666666664  8.307692307692307 13.636363636363637  C 8.307692307692307 13.787878787878785  8.192307692307693 14.090909090909092  7.961538461538462 14.545454545454547  L 21.23076923076923 14.545454545454547  C 21.480769230769234 14.545454545454547  21.697115384615387 14.635416666666664  21.879807692307693 14.815340909090908  C 22.0625 14.995265151515152  22.153846153846153 15.208333333333336  22.153846153846153 15.454545454545453  C 22.153846153846153 15.700757575757574  22.0625 15.913825757575758  21.879807692307693 16.09375  C 21.697115384615387 16.273674242424242  21.480769230769234 16.363636363636363  21.23076923076923 16  L 6.461538461538462 16  C 6.211538461538462 16.363636363636363  5.9951923076923075 16.273674242424242  5.8125 16.09375  C 5.6298076923076925 15.913825757575758  5.538461538461538 15.700757575757574  5.538461538461538 15.454545454545453  C 5.538461538461538 15.350378787878789  5.576923076923077 15.201231060606062  5.653846153846153 15.007102272727273  C 5.730769230769231 14.812973484848484  5.8076923076923075 14.642518939393938  5.884615384615384 14.495738636363637  C 5.961538461538463 14.34895833333333  6.064903846153847 14.159564393939394  6.194711538461538 13.927556818181817  C 6.324519230769232 13.695549242424239  6.399038461538462 13.555871212121211  6.418269230769232 13.508522727272727  L 3.865384615384616 1.8181818181818188  L 0.9230769230769231 1.8181818181818188  C 0.6730769230769231 1.8181818181818188  0.4567307692307693 1.728219696969695  0.2740384615384615 1.5482954545454541  C 0.09134615384615384 1.368371212121211  0 1.1553030303030298  0 0.9090909090909083  C 0 0.6628787878787867  0.09134615384615384 0.4498106060606033  0.2740384615384615 0.26988636363636465  C 0.4567307692307693 0.08996212121211933  0.6730769230769231 0  0.9230769230769231 0  L 4.615384615384616 0  C 4.76923076923077 0  4.90625 0.030776515151513806  5.0264423076923075 0.09232954545454586  C 5.146634615384616 0.1538825757575757  5.240384615384616 0.22727272727272707  5.3076923076923075 0.3125  C 5.375 0.39772727272727293  5.4375 0.5137310606060574  5.4951923076923075 0.6605113636363646  C 5.552884615384617 0.8072916666666652  5.591346153846155 0.9303977272727271  5.610576923076923 1.0298295454545459  C 5.629807692307693 1.1292613636363646  5.65625 1.2689393939393923  5.689903846153847 1.4488636363636354  C 5.723557692307693 1.6287878787878762  5.745192307692308 1.7518939393939381  5.7548076923076925 2  L 23.076923076923077 2  C 23.32692307692308 1.8181818181818188  23.543269230769234 1.9081439393939381  23.725961538461537 2.088068181818181  Z " fill-rule="nonzero" fill="#ffffff" stroke="none" transform="matrix(1 0 0 1 927 95 )" />
  </g>
</svg>