<?xml version="1.0" encoding="UTF-8"?><svg id="Layer_2" xmlns="http://www.w3.org/2000/svg" viewBox="0 0 210.93 318.87"><defs><style>.cls-1{fill:#345a9a;}</style></defs><g id="Layer_1-2"><g><path class="cls-1" d="M108.61,167.25c0,12.01,9.77,21.78,21.78,21.78s21.78-9.77,21.78-21.78-9.77-21.78-21.78-21.78-21.78,9.77-21.78,21.78Zm21.78-14.12c7.78,0,14.12,6.33,14.12,14.12s-6.33,14.12-14.12,14.12-14.12-6.33-14.12-14.12,6.33-14.12,14.12-14.12Z"/><path class="cls-1" d="M93.39,160.24c9.96,0,18.06-8.1,18.06-18.06s-8.1-18.06-18.06-18.06-18.06,8.1-18.06,18.06,8.1,18.06,18.06,18.06Zm0-28.46c5.73,0,10.4,4.67,10.4,10.4s-4.67,10.4-10.4,10.4-10.4-4.67-10.4-10.4,4.66-10.4,10.4-10.4Z"/><path class="cls-1" d="M105.08,117.07c7.48,0,13.56-6.08,13.56-13.56s-6.08-13.56-13.56-13.56-13.56,6.08-13.56,13.56,6.08,13.56,13.56,13.56Zm0-19.46c3.25,0,5.9,2.65,5.9,5.9s-2.65,5.9-5.9,5.9-5.9-2.65-5.9-5.9,2.65-5.9,5.9-5.9Z"/><path class="cls-1" d="M209.77,197.79c-.01-.08-.02-.16-.04-.24-2.2-14.54-7.4-28.47-15.38-40.93-10.56-16.49-25.44-29.7-43.03-38.21-8.87-4.29-14.6-13.39-14.6-23.19V26.47c4.05-.54,7.2-4.01,7.2-8.21V8.29c0-4.57-3.72-8.29-8.29-8.29h-60.35c-4.57,0-8.29,3.72-8.29,8.29v9.98c0,4.2,3.14,7.67,7.2,8.21V95.21c0,9.83-5.62,18.89-14.32,23.06C23.4,135.78,.18,172.71,0,212.99c0,.05,0,.09,0,.14,0,1.03,0,2.06,.02,3.09,1.49,56.81,48.69,102.64,105.45,102.64,.35,0,.7,0,1.05,0,27.95-.28,54.18-11.37,73.86-31.24,19.69-19.88,30.54-46.24,30.54-74.23,0-5.26-.4-10.47-1.16-15.61ZM74.66,8.29c0-.35,.28-.63,.63-.63h60.35c.35,0,.63,.28,.63,.63v9.98c0,.35-.28,.63-.63,.63h-60.35c-.35,0-.63-.28-.63-.63V8.29Zm-11.47,116.89c11.34-5.44,18.67-17.21,18.67-29.97V26.55h47.21V95.22c0,12.72,7.43,24.53,18.92,30.09,28.24,13.65,48.07,40.28,53.67,70.56-11.05,3.81-52.12,15.77-91.37-1.27-40.26-17.47-86.03,3.13-102.36,11.84,2.51-34.76,23.45-65.99,55.27-81.26Zm43.26,186.03c-.33,0-.65,0-.97,0-52.64,0-96.42-42.5-97.79-95.18,0-.23,0-.45,0-.68,9.96-5.68,58.87-31.37,99.55-13.72,40.58,17.61,81.82,6.59,95.53,1.98,.33,3.24,.51,6.51,.51,9.8,0,53.4-43.43,97.27-96.82,97.8Z"/></g></g></svg>