<?xml version="1.0" encoding="UTF-8"?><svg id="Layer_2" xmlns="http://www.w3.org/2000/svg" viewBox="0 0 230.19 322.32"><defs><style>.cls-1{fill:#345a9a;}</style></defs><g id="Layer_1-2"><g><path class="cls-1" d="M226.41,269.56s0-.03,.01-.04c.07-.19,.14-.39,.18-.6v-.06h.01c2.37-11.65,3.57-23.62,3.57-35.6,0-38.22-11.96-74.62-34.58-105.28-.05-.07-.12-.13-.18-.2C189.38,76.27,161.11,29.78,117.21,.64c-1.28-.85-2.95-.85-4.24,0C69.08,29.78,40.81,76.27,34.76,127.77c-.06,.07-.13,.13-.18,.2C11.96,158.63,0,195.04,0,233.26c0,11.98,1.2,23.96,3.57,35.59v.08c.05,.19,.11,.38,.18,.56,.01,.03,.01,.06,.03,.08,.09,.22,.2,.43,.32,.63,.03,.05,.07,.1,.11,.15,.1,.14,.2,.28,.31,.4,.06,.07,.13,.12,.19,.18,.11,.1,.21,.2,.33,.29,.07,.06,.15,.11,.23,.16,.13,.08,.26,.16,.4,.22,.05,.02,.09,.05,.14,.08,.03,.01,.07,.02,.1,.03,.16,.07,.33,.12,.51,.16,.07,.02,.13,.04,.2,.05,.23,.05,.47,.07,.72,.07h0c.23,0,.46-.03,.69-.07,.03,0,.05,0,.08,0,.04,0,.07-.02,.1-.03,.18-.04,.36-.1,.53-.17,.05-.02,.1-.03,.15-.06,.2-.09,.39-.2,.58-.32,.05-.03,.09-.07,.14-.1,.14-.1,.27-.21,.39-.33,.05-.05,.09-.09,.14-.14,.12-.13,.23-.27,.33-.41,.03-.04,.06-.07,.08-.11,.11-.17,.22-.36,.3-.56,1.64-3.77,3.47-7.58,5.43-11.32,8.14-15.51,18.49-29.51,30.78-41.69,1.67,4.01,3.48,7.98,5.46,11.89,.65,1.29,1.97,2.1,3.42,2.1h9.3v10.96c0,2.12,1.71,3.83,3.83,3.83h92.04c2.12,0,3.83-1.71,3.83-3.83v-10.96h9.3c1.44,0,2.77-.81,3.42-2.1,1.98-3.91,3.79-7.88,5.46-11.89,12.3,12.19,22.64,26.19,30.78,41.69,1.96,3.73,3.78,7.54,5.43,11.32,.09,.2,.19,.38,.3,.56,.03,.04,.06,.07,.08,.11,.1,.15,.22,.29,.34,.42,.04,.05,.09,.09,.14,.14,.12,.12,.25,.23,.39,.33,.05,.03,.09,.07,.14,.1,.18,.12,.38,.23,.58,.32,.05,.02,.1,.04,.15,.06,.17,.07,.35,.12,.53,.17,.03,0,.07,.02,.1,.03,.03,0,.05,0,.08,0,.23,.04,.46,.07,.69,.07h0c.24,0,.48-.03,.72-.07,.07-.01,.13-.04,.2-.05,.17-.04,.35-.09,.51-.16,.03-.01,.07-.02,.1-.03,.05-.02,.09-.05,.13-.07,.14-.07,.28-.14,.41-.23,.08-.05,.15-.1,.23-.15,.12-.09,.23-.19,.34-.29,.06-.06,.13-.12,.19-.18,.12-.13,.22-.27,.32-.41,.03-.05,.07-.09,.1-.14,.12-.2,.23-.41,.32-.63ZM115.09,8.45c12.26,8.4,23.19,18.25,32.66,29.21-8.92,6.13-20.23,9.48-32.29,9.48s-23.81-3.54-32.75-9.81c9.4-10.83,20.24-20.56,32.38-28.88ZM9.49,254.81c-.13,.24-.25,.49-.38,.73-.96-7.37-1.46-14.82-1.46-22.28,0-32.32,8.94-63.28,25.96-90.29-.06,1.88-.09,3.76-.09,5.64,0,20.89,3.53,41.1,10.5,60.32-13.9,13.27-25.52,28.69-34.54,45.87Zm147.79-17.01H72.9v-7.13h84.38v7.13Zm14.59-14.79H58.31c-11.36-23.25-17.12-48.26-17.12-74.4,0-38.85,13.18-75.78,36.61-105.37,10.34,7.47,23.55,11.56,37.66,11.56s26.91-3.97,37.19-11.23c23.27,29.54,36.35,66.34,36.35,105.04,0,26.13-5.76,51.15-17.12,74.4Zm14.28-14.07c6.97-19.22,10.5-39.43,10.5-60.32,0-1.89-.03-3.77-.09-5.64,17.02,27.01,25.96,57.97,25.96,90.29,0,7.46-.49,14.92-1.46,22.28-.13-.24-.25-.49-.38-.73-9.02-17.19-20.64-32.61-34.54-45.87Z"/><path class="cls-1" d="M115.09,64.4c-23.86,0-43.28,19.41-43.28,43.28s19.41,43.28,43.28,43.28,43.28-19.41,43.28-43.28-19.41-43.28-43.28-43.28Zm0,78.89c-19.64,0-35.62-15.98-35.62-35.62s15.98-35.62,35.62-35.62,35.62,15.98,35.62,35.62-15.98,35.62-35.62,35.62Z"/><path class="cls-1" d="M115.09,76.72c-12.9,0-24.57,8.13-29.04,20.22-.73,1.98,.28,4.19,2.26,4.92,.44,.16,.89,.24,1.33,.24,1.56,0,3.02-.96,3.59-2.5,3.36-9.1,12.15-15.22,21.85-15.22,2.12,0,3.83-1.71,3.83-3.83s-1.72-3.83-3.83-3.83Z"/><path class="cls-1" d="M91.81,107.67c0-2.12-1.72-3.83-3.83-3.83s-3.83,1.71-3.83,3.83c0,5.36,1.4,10.65,4.03,15.29,.71,1.24,2,1.94,3.33,1.94,.64,0,1.29-.16,1.89-.5,1.84-1.05,2.48-3.39,1.43-5.22-1.98-3.49-3.03-7.46-3.03-11.5Z"/><path class="cls-1" d="M114.64,163.4c-2.12,0-3.83,1.71-3.83,3.83v39.54c0,2.12,1.72,3.83,3.83,3.83s3.83-1.71,3.83-3.83v-39.54c0-2.12-1.72-3.83-3.83-3.83Z"/><path class="cls-1" d="M141.2,249.8c-1.99,.73-3.01,2.93-2.28,4.91,7.3,19.92-3.59,35.45-11.67,43.59-.53-5.25-3.17-8.95-5.78-11.79-1.47-1.61-3.07-3.08-4.76-4.64-3.46-3.19-7.03-6.49-9.53-11.05-2.32-4.22-1.48-9.37,2.49-15.3,1.18-1.76,.71-4.14-1.05-5.31-1.76-1.18-4.14-.71-5.31,1.05-7.09,10.58-5.46,18.48-2.85,23.25,3.1,5.66,7.33,9.56,11.05,13,.55,.51,1.09,1,1.61,1.5-2.83,2.3-5.94,4.01-8.97,5.67-5.57,3.05-11.66,6.39-14.2,13.41-6.64-11.12-14.47-32.26,4.85-52,1.48-1.51,1.45-3.94-.06-5.42-1.51-1.48-3.94-1.45-5.42,.06-32.36,33.06,.21,69.97,.54,70.34,.74,.82,1.78,1.27,2.85,1.27,.52,0,1.05-.11,1.55-.33,1.51-.67,2.43-2.24,2.26-3.89-1.01-9.97,3.63-12.51,11.31-16.72,3.29-1.8,6.91-3.79,10.35-6.63,1.8,3,2.18,6.39,.27,11.69-.56,1.56-.06,3.3,1.25,4.32,.69,.54,1.52,.81,2.35,.81,.75,0,1.49-.22,2.14-.65,.35-.24,8.77-5.98,15.7-15.97,9.38-13.53,11.53-28.35,6.21-42.87-.73-1.99-2.93-3.01-4.91-2.28Z"/></g></g></svg>