<?xml version="1.0" encoding="UTF-8"?><svg id="Layer_2" xmlns="http://www.w3.org/2000/svg" viewBox="0 0 237.47 203.72"><defs><style>.cls-1{fill:none;}</style></defs><g id="Layer_1-2" style="fill: #345a9a;"><g><path class="cls-1" d="M120.68,104.35c1.77-3.2,3.44-6.45,5.34-10.05h-14.76c1.91,3.61,3.58,6.92,5.4,10.15,.7,1.24,3.33,1.16,4.02-.1Z"/><path class="cls-1" d="M119.86,112.59c-.1-.65-.86-1.19-1.32-1.79-.38,.59-1.02,1.13-1.11,1.77-1.34,8.54-2.61,17.08-3.87,25.63-.38,2.55-.69,5.12-1.04,7.77h12.1c0-.7,.06-1.22,0-1.72-1.56-10.56-3.11-21.11-4.74-31.65Z"/><path class="cls-1" d="M96.56,61.69c1.84,3.44,3.61,7.1,6.21,9.93,5,5.44,11.42,8.25,18.96,6.88,9.98-1.81,15.84-8.36,19.16-17.57,1.19-3.3,2.47-6.56,3.63-9.63-.5-.99-1.37-2.05-1.53-3.2-.2-1.46,.03-3.02,.32-4.49,.99-5.05-2.04-8.53-4.4-12.31-12.12,6.09-22.59,1.41-33.12-4.51-.4,.96-.73,1.74-1.06,2.52-2,4.84-4.59,9.31-8.47,12.91-1.19,1.11-2.69,1.94-2.22,3.99,.08,.35-.22,.97-.53,1.21-2.35,1.75-1.42,3.76-.55,5.8,1.2,2.83,2.16,5.78,3.6,8.48Z"/><path class="cls-1" d="M225.81,185.99c-5.82-7.13-11.65-14.25-17.44-21.42-1.93-2.39-4.1-3.58-7.4-3.57-53.28,.11-106.56,.08-159.84,.07-1.51,0-3.02-.11-4.53-.12-2.59-.03-4.96,.52-6.72,2.62-7.65,9.12-15.33,18.21-22.94,27.35-1.12,1.34-2.25,2.85-1.37,4.82,.92,2.07,2.84,2.35,4.76,2.59,.58,.07,1.18,.04,1.77,.04,3.75-.03,7.5-.11,11.24-.11,31.7,0,63.41,0,95.11,0v.16c35.39,0,70.77,0,106.16,0,1.05,0,2.12,.04,3.15-.12,3.97-.63,5.11-3.46,2.66-6.66-1.48-1.93-3.09-3.76-4.62-5.65Zm-90.38,1.21c-5.65,.01-11.3,0-16.96,0-5.59,0-11.17,.01-16.76,0-2.18,0-3.09-.82-3.1-2.65,0-1.82,.95-2.7,3.08-2.7,11.24-.01,22.48-.01,33.71,0,2.18,0,3.31,1,3.25,2.79-.05,1.74-1.04,2.55-3.23,2.55Z"/><path class="cls-1" d="M93.35,37.48c.44-.48,.9-.93,1.31-1.43,3.09-3.77,5.13-8.1,6.43-12.74,1.06-3.8,2.81-4.5,6.21-2.33,4.11,2.62,8.57,4.85,13.14,6.57,5.91,2.22,11.83,2.18,17.1-2.16,1.26-1.04,2.67-.98,3.87,.31,.22,.24,.54,.39,.82,.58,.18-.1,.37-.19,.55-.29-1.12-3.25-2.04-6.59-3.42-9.73-2.31-5.25-6.48-8.46-12.02-9.92-5.36-1.42-10.71-1.01-15.96,.35-3.06,.79-6.6,1.53-8.78,3.53-5.64,5.16-10.02,11.37-10.33,19.47-.1,2.57,.25,5.16,.4,7.74,.23,.02,.47,.04,.7,.06Z"/><path d="M232.65,185.73c-6.94-8.34-13.85-16.71-20.72-25.1-2.8-3.43-6.18-5.07-10.75-5.06-52.88,.09-105.76,.06-158.64,.05-1.31,0-2.63-.06-3.93-.19-5.94-.58-10.55,1.2-14.35,6.21-6.23,8.22-13.06,15.99-19.57,24-1.48,1.82-2.98,3.74-3.93,5.85-2.21,4.97,.61,10.49,5.83,11.7,1.71,.4,3.52,.5,5.28,.5,62.68,.02,125.36,.02,188.04,.02,9.14,0,18.28,.03,27.43-.01,4.58-.02,8.14-2.41,9.43-6.14,.23-.67,.47-1.34,.7-2.01v-1.58c-.87-3.18-2.75-5.75-4.82-8.24Zm-4.88,12.56c-1.03,.16-2.1,.12-3.15,.12-35.39,0-70.77,0-106.16,0v-.16c-31.7,0-63.41,0-95.11,0-3.75,0-7.5,.07-11.24,.11-.59,0-1.19,.04-1.77-.04-1.92-.24-3.83-.52-4.76-2.59-.88-1.98,.25-3.48,1.37-4.82,7.61-9.14,15.29-18.24,22.94-27.35,1.77-2.11,4.14-2.65,6.72-2.62,1.51,.02,3.02,.12,4.53,.12,53.28,0,106.56,.04,159.84-.07,3.3,0,5.47,1.18,7.4,3.57,5.78,7.16,11.62,14.28,17.44,21.42,1.54,1.89,3.14,3.72,4.62,5.65,2.45,3.19,1.31,6.03-2.66,6.66Z"/><path d="M27.53,141.54c0,5.87,3.07,9.49,8.99,9.77,6.15,.3,12.33,.08,18.5,.08,26.03,0,52.07,0,78.1,0,16.31,0,32.63,.01,48.94,0,6.18,0,12.36,.03,18.53-.19,5.92-.21,8.99-3.48,9.15-9.4,.07-2.36,.03-4.73,.03-7.1,0-15.26,0-30.52,0-45.79h-.05c0-17.3-.13-34.6,.06-51.9,.08-6.91-4.4-10.8-10.74-10.74-8.94,.09-17.89,.02-26.84,.02-3.29,0-6.58-.04-9.87,.02-2.27,.04-3.52,1.94-2.66,3.88,.63,1.43,1.84,1.47,3.14,1.47,11.77-.01,23.55-.01,35.32,0,4.77,0,6.27,1.47,6.27,6.24,0,33.02-.03,66.05-.04,99.07,0,1.58,.09,3.16,.02,4.73-.12,2.64-1.41,4.04-4.02,4.2-3.08,.18-6.18,.08-9.26,.27-1.98,.12-2.55-.54-2.59-2.54-.18-7.62-.33-15.25-.94-22.84-.7-8.77-5.25-15.23-13.01-19.42-4.17-2.25-8.75-3.13-13.32-4.01-6.33-1.2-12.44-2.76-16.87-8.04-1.21-1.44-3.59-.58-3.86,1.39-.14,1.03,.21,2.4,.85,3.21,2.86,3.57,6.8,5.55,11.12,6.71,4.87,1.31,9.84,2.26,14.69,3.65,8.72,2.5,14.28,8.07,15.12,17.34,.65,7.19,.74,14.43,1.01,21.64,.1,2.84,.01,2.85-2.77,2.85-15.39,0-30.78,0-46.18,0-4.28,0-4.17-.02-4.78-4.29-1.46-10.26-3.01-20.5-4.58-30.74-.26-1.69-.1-3.16,.77-4.7,1.81-3.2,3.63-6.42,5.05-9.79,1.82-4.34,.1-7.18-4.61-7.46-5.03-.3-10.11-.3-15.14,0-4.8,.28-6.53,3.21-4.62,7.62,1.51,3.48,3.53,6.74,5.18,10.17,.48,1,.8,2.27,.65,3.34-1.6,11.3-3.34,22.58-4.98,33.87-.21,1.42-.71,2.03-2.24,2.03-16.38-.04-32.76-.04-49.13,0-1.66,0-2.17-.6-2.1-2.2,.3-7.16,.35-14.33,.84-21.47,.4-5.94,2.66-11.29,7.84-14.56,3.15-1.99,6.84-3.26,10.43-4.41,5.17-1.65,10.52-2.73,15.69-4.38,3.1-.99,5.65-3.08,7.63-5.72,1.04-1.39,.77-3.24-.55-4.22-1.42-1.06-2.54-.5-3.56,.72-2.21,2.65-5.04,4.47-8.32,5.4-3.9,1.1-7.87,2.03-11.85,2.8-14.11,2.73-22.04,11.65-22.74,25.86-.33,6.76-.51,13.53-.75,20.29-.03,.86,.12,1.83-1.17,1.82-3.61-.04-7.22,.03-10.82-.23-2.26-.17-3.35-1.51-3.63-3.74-.18-1.43-.34-2.88-.32-4.31,.05-4.4,.29-8.8,.29-13.21,.03-28.88,.01-57.76,.02-86.64,0-.72-.03-1.45,.02-2.17,.15-2.18,1.13-3.36,3.29-3.82,1.02-.22,2.08-.31,3.12-.32,11.71-.02,23.42-.01,35.12-.02,2.29,0,3.41-.87,3.42-2.6,0-1.71-1.22-2.75-3.36-2.75-11.64-.03-23.28-.08-34.93,0-2.07,.01-4.2,.34-6.19,.93-3.31,.97-5.32,3.33-5.76,6.8-.27,2.15-.4,4.33-.39,6.49,.07,12.82,.26,25.64,.29,38.46,.05,20.85,0,41.71,0,62.56Zm97.08,4.43h-12.1c.35-2.65,.66-5.22,1.04-7.77,1.26-8.55,2.53-17.09,3.87-25.63,.1-.63,.73-1.18,1.11-1.77,.46,.59,1.22,1.14,1.32,1.79,1.63,10.54,3.19,21.1,4.74,31.65,.07,.5,0,1.03,0,1.72Zm-13.35-51.67h14.76c-1.9,3.6-3.57,6.85-5.34,10.05-.69,1.26-3.32,1.34-4.02,.1-1.81-3.23-3.49-6.54-5.4-10.15Z"/><path d="M88.71,56.47c.75,1.2,1.38,2.54,1.73,3.91,1.48,5.73,4.16,10.79,8.3,14.99,6.51,6.61,14.33,9.97,23.69,8.48,10.53-1.68,17.59-8.07,22.12-17.41,2.08-4.3,3.79-8.78,5.62-13.2,.76-1.84,1.04-3.88-.35-5.42-1.23-1.37-1.29-2.72-1.13-4.33,.18-1.76,.22-3.53,.28-4.48-.13-7.88-.75-14.86-3.16-21.55-3.06-8.51-8.41-14.7-17.58-16.68-5.92-1.28-11.88-.88-17.76,.54-4.16,1-8.63,1.75-11.55,5.06-3.63,4.11-6.73,8.69-9.9,13.19-.8,1.13-1.07,2.67-1.42,4.06-1.58,6.36-.51,12.65,.54,18.94,.14,.86,.31,1.97-.09,2.63-2.38,3.96-1.61,7.62,.66,11.29Zm3.53-26.79c.32-8.11,4.69-14.32,10.33-19.47,2.19-2,5.73-2.74,8.78-3.53,5.25-1.36,10.6-1.76,15.96-.35,5.54,1.46,9.71,4.67,12.02,9.92,1.38,3.14,2.29,6.48,3.42,9.73-.18,.1-.37,.19-.55,.29-.27-.19-.59-.34-.82-.58-1.2-1.29-2.61-1.35-3.87-.31-5.26,4.34-11.19,4.38-17.1,2.16-4.57-1.72-9.03-3.94-13.14-6.57-3.4-2.17-5.15-1.47-6.21,2.33-1.3,4.65-3.33,8.98-6.43,12.74-.41,.5-.87,.95-1.31,1.43-.23-.02-.47-.04-.7-.06-.15-2.58-.5-5.17-.4-7.74Zm1.26,17.74c.32-.24,.62-.86,.53-1.21-.47-2.05,1.03-2.88,2.22-3.99,3.88-3.6,6.46-8.07,8.47-12.91,.32-.78,.65-1.56,1.06-2.52,10.54,5.92,21,10.6,33.12,4.51,2.36,3.78,5.39,7.26,4.4,12.31-.29,1.47-.52,3.03-.32,4.49,.16,1.15,1.03,2.21,1.53,3.2-1.16,3.07-2.44,6.33-3.63,9.63-3.33,9.21-9.18,15.75-19.16,17.57-7.54,1.37-13.96-1.43-18.96-6.88-2.6-2.83-4.37-6.48-6.21-9.93-1.44-2.7-2.39-5.65-3.6-8.48-.87-2.04-1.8-4.04,.55-5.8Z"/><path d="M135.4,181.85c-11.24-.01-22.48-.01-33.71,0-2.13,0-3.08,.88-3.08,2.7,0,1.83,.92,2.64,3.1,2.65,5.59,.02,11.17,0,16.76,0,5.65,0,11.3,0,16.96,0,2.19,0,3.18-.81,3.23-2.55,.05-1.79-1.08-2.79-3.25-2.79Z"/></g></g></svg>