<?xml version="1.0" encoding="UTF-8"?><svg id="Layer_2" xmlns="http://www.w3.org/2000/svg" viewBox="0 0 323.83 209.71"><defs><style>.cls-1{fill:#345a9a;}</style></defs><g id="Layer_1-2"><g><path class="cls-1" d="M3.83,191.9H320c2.12,0,3.83-1.71,3.83-3.83s-1.72-3.83-3.83-3.83h-16.47V3.83c0-2.12-1.71-3.83-3.83-3.83s-3.83,1.72-3.83,3.83V40.59h-29.13v-14.98h2.22c2.12,0,3.83-1.71,3.83-3.83V5.39c0-2.12-1.72-3.83-3.83-3.83h-58.94c-2.12,0-3.83,1.71-3.83,3.83V21.79c0,2.12,1.71,3.83,3.83,3.83h2.22v14.98h-22.79v-14.98h2.22c2.12,0,3.83-1.71,3.83-3.83V5.39c0-2.12-1.72-3.83-3.83-3.83h-58.94c-2.12,0-3.83,1.71-3.83,3.83V21.79c0,2.12,1.72,3.83,3.83,3.83h2.22v14.98h-22.79v-14.98h2.22c2.12,0,3.83-1.71,3.83-3.83V5.39c0-2.12-1.71-3.83-3.83-3.83H55.45c-2.12,0-3.83,1.71-3.83,3.83V21.79c0,2.12,1.71,3.83,3.83,3.83h2.22v14.98H30.3V3.83c0-2.12-1.71-3.83-3.83-3.83s-3.83,1.72-3.83,3.83V184.24H3.83c-2.12,0-3.83,1.72-3.83,3.83s1.72,3.83,3.83,3.83ZM213.86,9.22h51.28v8.73h-2.01c-.07,0-.14-.02-.21-.02h-46.84c-.07,0-.14,.02-.21,.02h-2.01V9.22Zm12.51,128.67h-6.46v-12.93h6.46c2.12,0,3.83-1.72,3.83-3.83s-1.72-3.83-3.83-3.83h-6.46v-12.93h6.46c2.12,0,3.83-1.71,3.83-3.83s-1.72-3.83-3.83-3.83h-6.46v-12.93h6.46c2.12,0,3.83-1.71,3.83-3.83s-1.72-3.83-3.83-3.83h-6.46v-12.93h6.46c2.12,0,3.83-1.72,3.83-3.83s-1.72-3.83-3.83-3.83h-6.46V25.62h39.18v126.54c0,10.8-8.79,19.59-19.59,19.59s-19.59-8.79-19.59-19.59v-6.61h6.46c2.12,0,3.83-1.72,3.83-3.83s-1.72-3.83-3.83-3.83ZM136.57,9.22h51.28v8.73h-2.01c-.07,0-.14-.02-.21-.02h-46.84c-.07,0-.14,.02-.21,.02h-2.01V9.22Zm12.23,127.71h-6.18v-12.93h6.18c2.12,0,3.83-1.72,3.83-3.83s-1.72-3.83-3.83-3.83h-6.18v-12.93h6.18c2.12,0,3.83-1.72,3.83-3.83s-1.72-3.83-3.83-3.83h-6.18v-12.93h6.18c2.12,0,3.83-1.71,3.83-3.83s-1.72-3.83-3.83-3.83h-6.18v-12.93h6.18c2.12,0,3.83-1.72,3.83-3.83s-1.72-3.83-3.83-3.83h-6.18V25.62h39.18v126.54c0,10.8-8.79,19.59-19.59,19.59s-19.59-8.79-19.59-19.59v-7.56h6.18c2.12,0,3.83-1.71,3.83-3.83s-1.72-3.83-3.83-3.83ZM59.28,9.22h51.28v8.73h-2.01c-.07,0-.14-.02-.21-.02H61.5c-.07,0-.14,.02-.21,.02h-2.01V9.22Zm12.91,126.75h-6.86v-12.93h6.86c2.12,0,3.83-1.71,3.83-3.83s-1.72-3.83-3.83-3.83h-6.86v-12.93h6.86c2.12,0,3.83-1.72,3.83-3.83s-1.72-3.83-3.83-3.83h-6.86v-12.93h6.86c2.12,0,3.83-1.72,3.83-3.83s-1.72-3.83-3.83-3.83h-6.86v-12.93h6.86c2.12,0,3.83-1.71,3.83-3.83s-1.72-3.83-3.83-3.83h-6.86V25.62h39.18v126.54c0,10.8-8.79,19.59-19.59,19.59s-19.59-8.79-19.59-19.59v-8.52h6.86c2.12,0,3.83-1.71,3.83-3.83s-1.72-3.83-3.83-3.83ZM30.3,48.26h27.37v103.9c0,15.03,12.22,27.25,27.25,27.25s27.25-12.22,27.25-27.25V48.26h22.79v103.9c0,15.03,12.22,27.25,27.25,27.25s27.25-12.22,27.25-27.25V48.26h22.79v103.9c0,15.03,12.22,27.25,27.25,27.25s27.25-12.22,27.25-27.25V48.26h29.13V184.24H30.3V48.26Z"/><path class="cls-1" d="M320,202.05H3.83c-2.12,0-3.83,1.72-3.83,3.83s1.72,3.83,3.83,3.83H320c2.12,0,3.83-1.71,3.83-3.83s-1.72-3.83-3.83-3.83Z"/></g></g></svg>