<?xml version="1.0" encoding="UTF-8"?><svg id="Layer_2" xmlns="http://www.w3.org/2000/svg" viewBox="0 0 321.68 313.13"><defs><style>.cls-1{fill:#345a9a;}</style></defs><g id="Layer_1-2"><g><path class="cls-1" d="M132.67,30.4c41.2,0,78.19,24.52,94.24,62.46,.62,1.46,2.04,2.34,3.53,2.34,.5,0,1-.1,1.49-.3,1.95-.82,2.86-3.07,2.04-5.02-17.25-40.79-57.01-67.14-101.29-67.14-2.12,0-3.83,1.71-3.83,3.83s1.72,3.83,3.83,3.83Z"/><path class="cls-1" d="M236.59,154.53c-2.05-.51-4.13,.74-4.64,2.8-4.15,16.77-12.6,32.34-24.45,45.05-1.44,1.55-1.36,3.97,.19,5.41,.74,.69,1.68,1.03,2.61,1.03,1.03,0,2.05-.41,2.8-1.22,12.73-13.66,21.82-30.41,26.28-48.43,.51-2.05-.74-4.13-2.8-4.64Z"/><path class="cls-1" d="M319.07,299.71l-54.03-47.43c-2.15-1.89-5.07-2.35-7.59-1.47l-29.52-25.91c23.14-23.89,37.41-56.43,37.41-92.23C265.34,59.52,205.82,0,132.67,0S0,59.52,0,132.67s59.52,132.67,132.67,132.67c34.59,0,66.12-13.31,89.76-35.07l30.04,26.37c-.48,2.57,.36,5.31,2.47,7.16l54.03,47.43c1.45,1.28,3.26,1.9,5.05,1.9,2.13,0,4.25-.88,5.76-2.61,2.79-3.18,2.48-8.02-.7-10.81Zm-186.4-42.03c-68.93,0-125.01-56.08-125.01-125.01S63.74,7.66,132.67,7.66s125.01,56.08,125.01,125.01-56.08,125.01-125.01,125.01Z"/><path class="cls-1" d="M116.71,155.38c-5.29,1.77-9.89,5.14-12.95,9.48-.54,.77-1.04,1.57-1.49,2.38-.41,.75-1.02,1.38-1.76,1.82-1.17,.7-2.54,.89-3.86,.52-1.32-.37-2.39-1.24-3.03-2.46-1.11-2.11-.47-4.86,1.47-6.25,.81-.58,1.75-.91,2.73-.93,.95-.03,1.92-.11,2.88-.24,5.43-.75,10.53-3.2,14.77-7.08,1.56-1.43,1.66-3.85,.23-5.41-1.43-1.56-3.85-1.66-5.41-.23-3.08,2.83-6.76,4.61-10.63,5.14-.68,.09-1.37,.15-2.05,.17-2.51,.07-4.93,.89-6.98,2.37-5.05,3.64-6.67,10.53-3.77,16.04,1.63,3.1,4.39,5.33,7.75,6.26,1.1,.31,2.24,.46,3.37,.46,2.27,0,4.53-.61,6.5-1.8,1.9-1.14,3.46-2.77,4.52-4.7,.31-.56,.66-1.12,1.03-1.65,2.13-3.02,5.37-5.38,9.12-6.64,2.01-.67,3.09-2.84,2.42-4.85-.67-2.01-2.84-3.09-4.85-2.42Z"/><path class="cls-1" d="M157.04,129.54s-.06,0-.09,0c-1.99,.02-3.94,.56-5.65,1.57-.45,.27-.93,.52-1.42,.74-2.78,1.25-6.06,1.56-9.25,.88-2.07-.44-4.1,.88-4.55,2.95-.44,2.07,.88,4.1,2.95,4.55,4.77,1.02,9.74,.53,14-1.39,.75-.34,1.48-.72,2.18-1.13,.55-.33,1.16-.5,1.81-.5,1.01,0,1.96,.39,2.66,1.12,.7,.73,1.06,1.69,1.01,2.71-.09,1.77-1.53,3.28-3.29,3.44-.73,.07-1.46-.08-2.09-.43-.73-.4-1.5-.77-2.28-1.1-4.42-1.85-9.36-2.28-14.27-1.24-2.07,.44-3.39,2.47-2.95,4.54,.44,2.07,2.47,3.39,4.54,2.95,3.39-.72,6.75-.44,9.73,.81,.52,.22,1.04,.47,1.53,.74,1.67,.93,3.54,1.4,5.45,1.4,.35,0,.69-.02,1.04-.05,5.57-.51,9.98-5.1,10.25-10.69,.15-3.15-.96-6.13-3.14-8.39-2.12-2.21-5.09-3.47-8.15-3.47Z"/><path class="cls-1" d="M97.16,131.78c.56,.15,1.13,.33,1.68,.55,3.13,1.22,5.91,3.56,7.83,6.59,.73,1.15,1.97,1.78,3.24,1.78,.7,0,1.41-.19,2.05-.6,1.79-1.13,2.31-3.5,1.18-5.29-2.79-4.4-6.88-7.82-11.52-9.62-.82-.32-1.66-.59-2.49-.82-.72-.19-1.36-.56-1.89-1.09-.83-.84-1.27-1.95-1.24-3.13,.03-1.18,.54-2.26,1.43-3.05,1.54-1.37,3.98-1.4,5.55-.07,.66,.56,1.12,1.28,1.35,2.09,.24,.86,.53,1.72,.86,2.56,1.9,4.75,5.26,8.83,9.74,11.8,1.76,1.17,4.14,.69,5.31-1.07,1.17-1.76,.69-4.14-1.07-5.31-3.17-2.1-5.54-4.96-6.86-8.26-.23-.58-.43-1.18-.6-1.77-.64-2.29-1.94-4.33-3.77-5.88-4.49-3.81-11.2-3.73-15.6,.19-2.48,2.21-3.9,5.24-3.99,8.55-.1,3.26,1.17,6.46,3.48,8.77,1.48,1.48,3.33,2.55,5.35,3.08Z"/><path class="cls-1" d="M220.62,139.9c.24-4.11-1.19-8.01-4-10.99-2.78-2.94-6.69-4.63-10.73-4.63-2.59,0-5.15,.69-7.38,1.99-1.2,.7-2.49,1.29-3.84,1.78-2.78,.99-5.81,1.43-8.92,1.32-1.29-8.78-4.28-17.08-8.92-24.72-1.82-3-.86-6.97,2.14-8.85,2.49-1.56,5.05-2.91,7.61-4.02,2.16-.93,4.02-2.33,5.53-4.17,4.41-5.35,4.47-13.15,.14-18.55-2.64-3.29-6.55-5.31-10.73-5.54-4.19-.23-8.29,1.34-11.25,4.3-1.45,1.45-2.55,3.14-3.3,5.03-.96,2.46-2.19,4.91-3.65,7.29-1.86,3.03-5.83,4-8.85,2.16-7.68-4.68-16.03-7.67-24.87-8.96-.09-3.42,.46-6.76,1.65-9.83,.43-1.12,.94-2.2,1.52-3.22,1.45-2.57,2.08-5.49,1.84-8.46-.6-7.27-6.55-13.07-13.84-13.49-4.11-.24-8.01,1.19-10.99,4-2.94,2.78-4.63,6.69-4.63,10.73,0,2.59,.69,5.15,1.98,7.38,.14,.25,.28,.49,.41,.74,1.95,3.67,2.72,7.94,2.29,12.2-8.63,1.3-16.8,4.24-24.32,8.78-2.99,1.81-6.96,.85-8.84-2.15-1.57-2.5-2.93-5.08-4.04-7.65-.93-2.16-2.33-4.02-4.17-5.53-5.35-4.41-13.15-4.47-18.55-.14-3.29,2.64-5.31,6.55-5.54,10.73-.23,4.19,1.34,8.29,4.3,11.25,1.45,1.45,3.14,2.55,5.03,3.3,2.45,.96,4.89,2.18,7.25,3.62,1.46,.9,2.49,2.32,2.9,4,.41,1.68,.14,3.41-.75,4.87-4.69,7.66-7.71,15.99-9.02,24.81-3.68,.13-7.26-.5-10.55-1.91-.82-.35-1.63-.75-2.39-1.18-2.57-1.45-5.49-2.08-8.46-1.84-7.27,.6-13.07,6.55-13.49,13.84-.24,4.11,1.19,8.01,4,10.99,2.78,2.94,6.69,4.63,10.73,4.63,2.6,0,5.15-.69,7.38-1.98,.72-.42,1.49-.81,2.26-1.15,3.25-1.43,6.81-2.05,10.47-1.87,1.26,8.78,4.22,17.09,8.83,24.73,1.81,3.01,.85,6.97-2.15,8.84-2.45,1.53-4.97,2.85-7.48,3.94-2.16,.93-4.02,2.33-5.53,4.17-4.41,5.35-4.47,13.15-.14,18.55,2.64,3.29,6.55,5.31,10.73,5.54,.27,.02,.54,.02,.81,.02,3.9,0,7.67-1.55,10.44-4.32,1.45-1.45,2.55-3.14,3.3-5.03,.94-2.39,2.12-4.78,3.52-7.08,.89-1.46,2.31-2.5,3.99-2.9,1.68-.41,3.42-.14,4.88,.75,7.7,4.71,16.08,7.73,24.94,9.02,.08,3.62-.56,7.15-1.94,10.38-.35,.82-.75,1.63-1.18,2.39-1.45,2.57-2.08,5.49-1.84,8.46,.6,7.27,6.55,13.07,13.84,13.49,.29,.02,.59,.03,.88,.03,3.78,0,7.34-1.41,10.11-4.03,2.94-2.78,4.63-6.69,4.63-10.73,0-2.6-.69-5.15-1.99-7.38-.42-.72-.81-1.48-1.15-2.26-1.39-3.17-2.01-6.74-1.84-10.35,8.78-1.29,17.08-4.26,24.71-8.9,3.01-1.83,6.98-.87,8.86,2.14,1.51,2.43,2.83,4.94,3.91,7.45,.93,2.16,2.34,4.02,4.17,5.53,2.7,2.23,6.04,3.35,9.37,3.35s6.51-1.07,9.18-3.21c3.29-2.64,5.31-6.55,5.54-10.73,.23-4.19-1.34-8.29-4.3-11.25-1.44-1.45-3.14-2.55-5.03-3.3-2.4-.94-4.8-2.14-7.12-3.55-3.04-1.85-4.01-5.82-2.16-8.85,4.68-7.69,7.67-16.06,8.94-24.9,3.66-.12,7.23,.51,10.5,1.92,.82,.35,1.63,.75,2.39,1.18,2.21,1.25,4.68,1.89,7.22,1.89,.41,0,.82-.02,1.24-.05,7.27-.6,13.07-6.55,13.49-13.84Zm-18.18,5.33c-1.01-.57-2.06-1.09-3.14-1.55-6.19-2.65-13.11-3.27-20.02-1.77l-4.87,1.05c-2.07,.45-3.38,2.49-2.93,4.55,.45,2.07,2.48,3.38,4.55,2.93l1.77-.38c-1.29,6.95-3.79,13.55-7.51,19.66-4.04,6.65-1.92,15.34,4.73,19.38,2.7,1.64,5.49,3.03,8.31,4.13,.9,.35,1.71,.89,2.41,1.58,1.42,1.42,2.18,3.4,2.07,5.41-.11,2.04-1.06,3.88-2.68,5.17-2.55,2.04-6.37,2.01-8.89-.07-.89-.73-1.57-1.63-2.01-2.66-1.23-2.85-2.73-5.7-4.44-8.45-4.08-6.56-12.75-8.64-19.34-4.65-6.02,3.65-12.51,6.13-19.35,7.44l3.49-15.69c.46-2.06-.84-4.11-2.91-4.57-2.07-.46-4.11,.84-4.57,2.91l-4.32,19.42c-.13,.6-.23,1.19-.33,1.79-.02,.13-.06,.25-.07,.38-.9,5.92-.17,11.95,2.14,17.21,.46,1.04,.98,2.06,1.54,3.03,.62,1.07,.95,2.29,.95,3.54,0,1.97-.79,3.8-2.22,5.16-1.43,1.35-3.31,2.04-5.29,1.92-3.44-.2-6.36-3.04-6.64-6.47-.12-1.43,.19-2.84,.88-4.07,.57-1.01,1.09-2.06,1.55-3.14,2.62-6.11,3.27-12.96,1.88-19.8l-4.41-21.7c-.42-2.07-2.45-3.41-4.52-2.99-2.07,.42-3.41,2.44-2.99,4.52l3.78,18.61c-7-1.3-13.64-3.83-19.78-7.59-3.21-1.97-7.01-2.55-10.68-1.66-3.68,.89-6.78,3.16-8.73,6.37-1.63,2.68-3.01,5.46-4.11,8.26-.35,.9-.89,1.71-1.58,2.41-1.42,1.42-3.39,2.18-5.41,2.07-2.04-.11-3.88-1.07-5.17-2.68-2.04-2.55-2.01-6.37,.07-8.89,.73-.89,1.63-1.57,2.66-2.01,2.86-1.24,5.72-2.74,8.49-4.47,6.54-4.07,8.63-12.73,4.66-19.3-3.65-6.05-6.11-12.56-7.4-19.43l10.31,2.17c2.07,.44,4.1-.89,4.54-2.96,.44-2.07-.89-4.1-2.96-4.54l-14.24-3c-.5-.1-.99-.18-1.49-.26-.13-.03-.26-.06-.39-.07-6.01-.92-11.96-.2-17.32,2.16-1.04,.46-2.06,.97-3.03,1.54-1.07,.62-2.29,.95-3.54,.95-1.97,0-3.8-.79-5.16-2.22-1.35-1.43-2.04-3.31-1.92-5.29,.2-3.44,3.04-6.36,6.47-6.64,1.43-.12,2.84,.19,4.07,.88,1.01,.57,2.06,1.09,3.14,1.55,5.48,2.35,11.53,3.09,17.64,2.19,.03,0,.05,0,.08-.01,.77-.11,1.54-.25,2.31-.41l13.4-2.91c2.07-.45,3.38-2.49,2.93-4.56s-2.49-3.38-4.56-2.93l-10.24,2.22c1.32-6.91,3.84-13.46,7.56-19.53,1.96-3.21,2.56-7,1.67-10.67-.89-3.67-3.14-6.77-6.35-8.73-2.75-1.68-5.59-3.1-8.45-4.22-.9-.35-1.71-.89-2.41-1.58-1.42-1.42-2.18-3.4-2.07-5.41,.11-2.04,1.06-3.88,2.68-5.17,2.55-2.04,6.37-2.01,8.89,.07,.89,.73,1.57,1.63,2.01,2.66,1.27,2.93,2.81,5.85,4.59,8.68,4.09,6.51,12.74,8.59,19.29,4.63,5.71-3.45,11.84-5.85,18.3-7.19l-5.81,18.26c-.64,2.02,.47,4.17,2.49,4.81,2.01,.64,4.17-.47,4.81-2.49l6.91-21.72c2.44-7.66,1.76-15.97-1.87-22.81-.18-.33-.36-.66-.55-1-.62-1.07-.95-2.29-.95-3.53,0-1.97,.79-3.8,2.22-5.16,1.43-1.35,3.32-2.03,5.29-1.92,3.44,.2,6.36,3.04,6.64,6.47,.12,1.43-.19,2.84-.88,4.06-.75,1.34-1.42,2.75-1.99,4.21-1.97,5.08-2.61,10.7-1.9,16.36,0,.07,.02,.14,.03,.21,.08,.6,.16,1.19,.27,1.79l4.55,24.79c.34,1.85,1.95,3.14,3.76,3.14,.23,0,.46-.02,.7-.06,2.08-.38,3.46-2.38,3.08-4.46l-3.89-21.22c7,1.29,13.64,3.8,19.79,7.55,6.62,4.03,15.31,1.92,19.37-4.7,1.69-2.76,3.12-5.61,4.25-8.5,.35-.9,.89-1.71,1.58-2.41,1.43-1.43,3.4-2.18,5.41-2.07,2.04,.11,3.88,1.07,5.17,2.68,2.04,2.55,2.01,6.37-.07,8.89-.73,.89-1.63,1.57-2.66,2.01-2.91,1.26-5.82,2.79-8.64,4.56-6.54,4.09-8.61,12.76-4.62,19.32,3.7,6.09,6.2,12.67,7.5,19.6l-3.61-.63c-2.08-.37-4.07,1.03-4.44,3.11-.37,2.08,1.03,4.07,3.11,4.44l7.91,1.39c.25,.04,.51,.07,.76,.11,.12,.03,.25,.04,.37,.05,5.29,.75,10.57,.27,15.35-1.43,1.79-.64,3.51-1.44,5.11-2.37,1.07-.62,2.29-.95,3.54-.95,1.97,0,3.8,.79,5.16,2.22,1.35,1.43,2.04,3.31,1.92,5.29-.2,3.44-3.04,6.36-6.47,6.64-1.43,.12-2.84-.19-4.06-.88Z"/></g></g></svg>