<?xml version="1.0" encoding="UTF-8"?><svg id="Layer_2" xmlns="http://www.w3.org/2000/svg" viewBox="0 0 291.63 329.36"><defs><style>.cls-1{fill:#345a9a;}</style></defs><g id="Layer_1-2"><path class="cls-1" d="M289.84,182.88c-7.54-4.74-15.14-6.62-22.65-5.63-2.94-7.96-14.61-13.26-20.22-15.4-1.82-9.72-12.88-14.39-17.23-15.87-5.21-9.11-18.87-11.23-23.99-11.71-4.82-5.38-12.59-6.8-17.95-7.09,.13-5.53-.11-10.64-.62-15.38,2.77-2.2,10.99-9.24,15.76-18.55,8.22-1.08,14.82-4.93,19.64-11.48,16.36-22.23,6.54-68.55,4.32-77.93-.08-.61-.23-1.11-.4-1.49,0-.02-.01-.03-.02-.05-.02-.05-.05-.11-.07-.16-.04-.08-.09-.15-.13-.22-.06-.1-.12-.21-.19-.31-.08-.11-.17-.22-.26-.32-.06-.07-.12-.14-.19-.21-.11-.11-.22-.2-.34-.29-.07-.05-.13-.1-.2-.15-.13-.09-.26-.16-.4-.23-.07-.04-.14-.08-.22-.11-.15-.06-.3-.11-.45-.15-.08-.02-.15-.05-.23-.06-.17-.04-.34-.06-.51-.07-.07,0-.13-.02-.2-.02-.19,0-.38,0-.57,.03-.04,0-.08,0-.12,0-.01,0-.03,0-.04,.01-.19,.03-.38,.08-.57,.15-.06,.02-.12,.03-.18,.06-.04,.01-.07,.02-.11,.03-.15,.06-.29,.15-.43,.23-.04,.02-.08,.04-.11,.06-.21,.13-.4,.27-.57,.43h0c-.36,.34-.65,.73-.86,1.17-.02,.04-.03,.08-.05,.12-.08,.17-.14,.35-.19,.53-.02,.08-.03,.17-.05,.25-.03,.15-.06,.3-.07,.45,0,.09,0,.18,0,.28,0,.15,0,.31,.02,.46,0,.04,0,.08,0,.13,0,.06,.04,.21,.08,.39-.42,1.22-4.37,9.07-38.16,24.77-7.31,3.4-12.95,7.35-16.82,11.77-15.34-9.33-17.6-14.08-17.91-15.04v-.05c.52-1.81-.37-3.72-2.08-4.5-1.71-.78-3.73-.21-4.78,1.35-.24,.35-.62,1.06-.78,2.11-2.17,8.27-15.06,61.39,5.93,82.13,5.55,5.49,12.85,8.24,21.81,8.24,4.07,0,8.5-.58,13.25-1.72,.4,4.17,.57,8.67,.44,13.52-10.04,1.11-16.52,9.7-19.03,13.73-11.12,.77-18.42,7.02-20.58,9.12-6.07,2.76-10.54,10.05-12.42,13.57-4.77,1.47-9.7,7.06-15.29,17.29-2.95,5.39-5.32,10.72-6.59,13.7h-4.44c-7.27,0-14.19,2.74-19.49,7.71l-31.7,29.72-11.31-11.73c-1.44-1.5-3.82-1.57-5.35-.16L1.24,250.43c-.76,.7-1.21,1.68-1.23,2.72-.03,1.03,.37,2.04,1.09,2.78l70.56,72.28c.72,.73,1.69,1.15,2.72,1.15h.02c1.02,0,1.99-.4,2.71-1.12l30.98-30.98c1.48-1.48,1.5-3.86,.05-5.37l-5.36-5.56h105.86c.76,0,1.5-.23,2.14-.65,58.01-38.96,79.72-95.82,80.62-98.22,.63-1.7-.01-3.62-1.55-4.58ZM184.31,36.51c17.99-8.36,30.34-15.73,36.95-22.03,3.58,19.93,5.41,48.8-4.86,62.75-2.75,3.74-6.2,6.23-10.44,7.55,.44-2.24,.61-4.55,.4-6.91-.63-7.14-4.5-13.54-11.51-19.1,5.16-8.09,10.13-11.66,10.17-11.69,1.74-1.2,2.18-3.59,.97-5.33-1.2-1.74-3.59-2.18-5.33-.97-.27,.19-6.15,4.33-12.15,13.68-1.45-.85-2.99-1.69-4.62-2.49-4.89-2.42-9.14-4.65-12.84-6.71,3.13-3.18,7.56-6.11,13.26-8.76Zm-20.28,26.21c-1.71-1.24-4.08-.86-5.33,.84-1.25,1.7-.88,4.09,.82,5.35,.74,.55,14.52,11.11,19.15,37.31-12.82,3.24-22.45,1.78-28.64-4.33-14.25-14.08-9.38-48.89-5.91-65.93,6.46,6.45,18.63,14.11,36.38,22.89,11.43,5.66,17.56,12.28,18.23,19.69,.29,3.27-.46,6.51-1.79,9.57-.05,.11-.11,.22-.15,.34-2.68,5.94-7.5,11.14-10.97,14.38-5.6-27.98-20.95-39.5-21.78-40.11Zm-33.37,108.33c1.49,0,2.85-.87,3.48-2.22,1.53-3.3,4.97-8.72,8.43-11.01,.1,.04,.18,.09,.28,.13,16.64,5.55,14.17,18.92,13.83,20.45-.12,.51-.13,1.02-.05,1.51-.84,1.08-1.51,2.14-2.02,3.11-.97,1.87-.24,4.16,1.62,5.14,.57,.3,1.17,.44,1.77,.44,1.37,0,2.7-.74,3.39-2.03,.73-1.36,7.6-13.13,23.84-6.45,1.96,.81,4.19-.13,5-2.08,.81-1.96-.13-4.19-2.08-5-9.9-4.08-17.81-2.86-23.56,.18-.56-6.91-4.14-15.47-14.67-20.64,3.07-1.91,7.64-3.9,13.44-3.9,1.44,0,2.77-.82,3.42-2.11,.06-.12,6.02-11.66,15.51-11.66,.14,0,.28,0,.42-.02,.14-.01,.31-.03,.46-.04,.15,.02,.29,.06,.44,.07,.07,0,.14,0,.21,0,.35,0,.69-.06,1.02-.15,4.61-.09,12.57,.74,15.83,5.39,.68,.97,1.78,1.57,2.96,1.63,4.6,.22,17.13,2.24,19.88,8.83,.46,1.1,1.41,1.92,2.55,2.23,.12,.03,10.28,2.92,12.89,8.92-17.81,2.61-22.74,16.48-22.81,23.78-.02,2.11,1.67,3.82,3.77,3.85h.06c2.08,0,3.78-1.67,3.83-3.76,.03-1.55,.83-15.15,18.34-16.53,.49-.04,.94-.17,1.35-.37,6.21,2.28,14.18,6.57,16.22,10.46-13.62,5.37-22.28,18.96-24.6,22.97l-25.41,13c-3.59-4.12-8.82-6.78-14.66-6.87l-33.87-.51c-3.94-.06-7.77-1.23-11.07-3.38l-7.68-5.01c-4.64-3.03-10.02-4.63-15.57-4.63h-12.31c5.77-12.95,12.94-23.72,16.11-23.72Zm-56.23,149.03L9.33,253.39l27.04-24.91,63.63,66.02-25.58,25.58Zm133.03-41.41H95.91c-.16,0-.32,.03-.47,.05l-39.52-41,31.62-29.65c3.88-3.63,8.94-5.64,14.25-5.64h25.08c4.05,0,7.99,1.17,11.38,3.38l7.68,5.01c4.51,2.94,9.75,4.54,15.13,4.62l33.87,.51c6.63,.1,12.02,5.58,12.02,12.21s-5.48,12.21-12.21,12.21h-55.38c-2.12,0-3.83,1.71-3.83,3.83s1.72,3.83,3.83,3.83h55.38c10.96,0,19.87-8.91,19.87-19.87,0-2.22-.39-4.35-1.07-6.36l26.09-13.35c.71-.36,1.28-.93,1.65-1.64,.09-.17,9.26-17.43,23.87-21.39,5.78-1.56,11.76-.78,17.81,2.33-5.26,12.11-27.69,58.36-75.51,90.9Z"/></g></svg>