<?xml version="1.0" encoding="UTF-8"?><svg id="Layer_2" xmlns="http://www.w3.org/2000/svg" viewBox="0 0 239.2 274.82"><defs><style>.cls-1{fill:#345a9a;}</style></defs><g id="Layer_1-2"><g><path class="cls-1" d="M237.91,18.45L218.12,.96c-.76-.67-1.75-1.02-2.77-.95-1.01,.06-1.96,.52-2.63,1.29l-14.95,16.92-5.74-5.07c-.76-.67-1.76-1.02-2.77-.95-1.01,.06-1.96,.53-2.63,1.29L88.52,124.46c-1.4,1.59-1.25,4.01,.33,5.41l5.73,5.06-14.95,16.92c-1.4,1.59-1.25,4.01,.33,5.41l19.79,17.49c.7,.62,1.61,.96,2.54,.96,.08,0,.16,0,.24,0,1.01-.06,1.96-.53,2.63-1.29l14.95-16.91,5.73,5.07c.7,.62,1.61,.96,2.54,.96,.08,0,.16,0,.23,0,1.01-.06,1.96-.52,2.64-1.29l16.51-18.68c3.1,1.54,6.55,2.47,10.2,2.64,17.96,21.04,16.89,43.96-3.16,68.15H28.85c-8.62,0-15.64,7.02-15.64,15.64v10.86c-7.42,.82-13.2,7.11-13.2,14.74v15.4c0,2.12,1.71,3.83,3.83,3.83H233.48c2.12,0,3.83-1.71,3.83-3.83v-15.4c0-7.63-5.79-13.93-13.2-14.74v-10.86c0-8.53-6.87-15.48-15.37-15.63,11.47-22.61,13.56-43.51,6.17-62.2-6.67-16.88-19.95-28.62-30.47-35.73-.59-3.63-1.95-7-3.9-9.95l48.82-55.23c1.4-1.59,1.25-4.01-.33-5.41l-5.73-5.07,14.95-16.92c1.4-1.59,1.25-4.01-.33-5.41ZM101.96,166.47l-14.05-12.42,12.42-14.05,14.05,12.42-12.41,14.04Zm39.19-45.89c0-9.92,8.07-17.99,17.99-17.99s17.99,8.07,17.99,17.99-8.07,17.99-17.99,17.99-17.99-8.07-17.99-17.99Zm79.13,127.84h2.2c3.96,0,7.18,3.22,7.18,7.18v11.57H7.66v-11.57c0-3.96,3.22-7.18,7.18-7.18H220.27Zm-3.83-18.43v10.77H20.86v-10.77c0-4.4,3.58-7.98,7.98-7.98H208.46c4.4,0,7.98,3.58,7.98,7.98Zm-32.18-104.3c22.05,16.51,40.02,44.5,15.82,88.66h-35.57c10.1-13.77,14.67-27.53,13.58-40.99-.8-9.85-4.59-19.35-11.26-28.31,8.8-2.78,15.57-10.18,17.43-19.35Zm-8.89-24.94c-4.43-3.63-10.08-5.82-16.24-5.82-14.14,0-25.65,11.5-25.65,25.65,0,7.29,3.06,13.88,7.96,18.55l-13.4,15.16-5.7-5.04s-.02-.02-.03-.03l-19.79-17.49h0l-5.72-5.06L189.82,21.41l5.72,5.06h.01l19.79,17.51s.02,.01,.02,.02l5.71,5.05-45.7,51.7Zm42.18-65.05l-14.05-12.42,12.42-14.05,14.05,12.42-12.42,14.05Z"/><path class="cls-1" d="M50.05,204.78h48.23c2.12,0,3.83-1.71,3.83-3.83s-1.71-3.83-3.83-3.83H50.05c-2.12,0-3.83,1.71-3.83,3.83s1.71,3.83,3.83,3.83Z"/></g></g></svg>