<?xml version="1.0" encoding="UTF-8"?><svg id="Layer_2" xmlns="http://www.w3.org/2000/svg" viewBox="0 0 292.87 327.79"><defs><style>.cls-1{fill:#fff;}</style></defs><g id="_ÎÓÈ_1"><path class="cls-1" d="M264.92,237.98l22.78,33.43c12.8,17.87-.35,29.39-15.41,36.92-20.01,10.01-40.85,22.28-72.97,18.86-49.84-5.3-80.01-37.61-112.21-72.1C58.01,223.94-20.2,140.16,4.89,52.71c4.41-15.38,11.31-28.41,18.73-39.12C33.26-.34,47.35-7.2,64.81,11.05l34.74,31.84c21.05,19.89,21.79,29.05,13.36,44.99-2.54,4.81-3.16,4.57-6.56,8.79-3.03,3.77-11.42,9.9-15.61,12.32l-9.28,7.41c-.44,.25,4.78-4.76,4.4-4.41-14.97,13.8-10.87,32,1.97,48.16l50.67,63.74c13.55,17.05,37.98,20.73,55.95,8.43l3.81-2.61c26.68-28.35,44.75-22.87,66.66,8.26Z"/></g></svg>