<?xml version="1.0" encoding="UTF-8"?><svg id="Layer_2" xmlns="http://www.w3.org/2000/svg" viewBox="0 0 302.3 246.66"><defs><style>.cls-1{fill:#345a9a;}</style></defs><g id="Layer_1-2"><path class="cls-1" d="M302.3,109.84c0-23.01-17.85-41.91-40.43-43.62-3.13-21.18-21.49-37.31-43.26-37.31-.05,0-.1,0-.15,0C212.29,11.75,195.79,0,177.31,0c-13.51,0-25.99,6.12-34.26,16.56-7.97-7.07-18.33-11.05-29.07-11.05-14.45,0-27.66,6.93-35.87,18.67-2.67-.51-5.42-.77-8.19-.77-21.5,0-39.65,15.52-43.14,36.47C10.67,66.66,0,82.58,0,100.21c0,24.13,19.63,43.76,43.76,43.76,2.27,0,4.55-.2,6.81-.55,6.03,17.52,22.56,29.46,41.38,29.46,3.92,0,7.77-.52,11.5-1.53,7.7,13.58,22.29,22.19,38.06,22.19,3.26,0,6.5-.36,9.66-1.08l29.69,46.37c3.21,5.01,8.52,7.84,14.16,7.84,1.73,0,3.49-.27,5.23-.82,7.52-2.38,12.15-9.01,11.81-16.89l-.37-8.66c14.64-2.79,26.91-12.9,32.44-26.78,23.79-.39,43.03-19.86,43.03-43.74,0-2.15-.16-4.3-.47-6.42,9.95-8.34,15.62-20.42,15.62-33.51Zm-22.08,28.87c-.07,.05-.12,.12-.19,.17-.11,.09-.21,.18-.31,.28-.09,.09-.16,.19-.23,.29-.07,.1-.15,.19-.21,.3-.07,.11-.12,.22-.18,.33-.05,.11-.11,.22-.15,.33-.04,.11-.07,.23-.11,.35-.03,.12-.07,.24-.09,.37-.02,.12-.03,.24-.04,.37,0,.12-.02,.24-.02,.37,0,.14,.02,.28,.04,.42,.01,.08,0,.17,.02,.25,.48,2.37,.72,4.81,.72,7.24,0,19.9-16.19,36.1-36.1,36.1-.57,0-1.13-.01-1.7-.05-.08,0-.16,0-.24,0-.12,0-.25,0-.37,0-5.96-.52-11.72-2.12-17.15-4.78-11.63-5.71-20.33-15.6-24.51-27.86-.17-.49-.43-.92-.75-1.29,2.93-4.3,5.24-8.96,6.87-13.92,.66-2.01-.43-4.17-2.44-4.84-2.01-.66-4.17,.43-4.84,2.44-1.95,5.92-5,11.36-9.07,16.16-8.38,9.88-20.1,15.91-33,16.97-2.11,.17-3.68,2.02-3.5,4.13,.16,2,1.84,3.52,3.81,3.52,.11,0,.21,0,.32-.01,14.07-1.16,26.92-7.42,36.47-17.69,5.18,12.81,14.76,23.14,27.27,29.28,4.93,2.42,10.11,4.09,15.45,4.99-5.36,11.18-16.18,18.97-28.71,20.29-.09,0-.17,.04-.26,.05-.13,.02-.26,.05-.39,.08-.12,.03-.23,.08-.35,.12-.12,.05-.24,.09-.35,.15-.11,.06-.21,.12-.32,.19-.1,.07-.21,.13-.3,.21-.1,.08-.18,.16-.27,.25-.09,.09-.18,.17-.26,.26-.08,.09-.15,.19-.22,.29-.07,.1-.14,.2-.2,.31-.06,.11-.11,.22-.16,.33-.05,.11-.1,.22-.14,.34-.04,.12-.07,.24-.1,.37-.03,.12-.06,.24-.07,.36-.02,.13-.02,.27-.02,.4,0,.09-.02,.17-.02,.26l.52,12.11c.23,5.24-3.19,8.22-6.47,9.26-3.28,1.04-7.8,.57-10.63-3.85l-31.18-48.71c-.04-.06-.09-.11-.13-.16-.08-.11-.17-.22-.26-.33-.08-.09-.16-.17-.25-.25-.09-.09-.19-.17-.29-.24-.1-.08-.2-.14-.31-.21-.1-.06-.21-.12-.32-.18-.11-.05-.22-.1-.34-.14-.12-.04-.23-.08-.36-.11-.11-.03-.23-.05-.35-.07-.12-.02-.25-.04-.38-.05-.12,0-.25,0-.37,0-.12,0-.24,.01-.36,.03-.14,.02-.27,.05-.41,.08-.07,.02-.14,.02-.21,.04-3.33,.99-6.79,1.49-10.29,1.49-13.94,0-26.76-8.15-32.67-20.76-.03-.06-.07-.11-.1-.18-.06-.12-.13-.23-.2-.34-.07-.1-.14-.2-.22-.3-.08-.1-.16-.19-.25-.28-.09-.09-.18-.17-.28-.25-.09-.08-.19-.15-.29-.21-.1-.07-.21-.13-.32-.19-.11-.06-.21-.11-.32-.15-.11-.05-.23-.09-.35-.13-.12-.04-.23-.07-.35-.09-.12-.02-.24-.04-.36-.06-.12-.01-.24-.02-.37-.02-.13,0-.25,0-.38,.02-.12,.01-.24,.03-.36,.05-.13,.02-.26,.06-.39,.1-.07,.02-.13,.03-.2,.05-3.88,1.39-7.96,2.09-12.13,2.09-16.52,0-30.91-11.17-34.99-27.16-.03-.12-.08-.23-.12-.34-.04-.12-.08-.25-.13-.37-.06-.12-.13-.22-.2-.33-.06-.11-.12-.22-.19-.31-.08-.11-.17-.19-.26-.29-.08-.09-.15-.18-.24-.26-.1-.09-.21-.16-.31-.24-.09-.07-.18-.14-.27-.2-.11-.07-.23-.11-.35-.17-.1-.05-.2-.11-.31-.15-.12-.04-.25-.07-.37-.1-.12-.03-.23-.07-.35-.09-.12-.02-.25-.02-.38-.02-.12,0-.25-.02-.37-.02-.13,0-.26,.03-.39,.05-.12,.02-.23,.02-.35,.05-2.83,.68-5.72,1.02-8.59,1.02-19.9,0-36.1-16.19-36.1-36.1,0-15.19,9.6-28.85,23.89-33.98,3.9-1.4,8.01-2.11,12.21-2.11,5.51,0,10.78,1.21,15.68,3.58-7.59,12.63-9.9,27.45-6.5,41.82,.42,1.76,1.99,2.95,3.72,2.95,.29,0,.59-.03,.89-.1,2.06-.49,3.33-2.55,2.85-4.61-2.98-12.6-.88-25.61,5.92-36.64,3.3-5.35,7.53-9.94,12.55-13.63,1.71-1.25,2.07-3.65,.82-5.35-1.25-1.71-3.65-2.07-5.35-.82-3.95,2.9-7.46,6.28-10.51,10.09-.19-.15-.4-.28-.63-.4-6.06-3.02-12.6-4.54-19.44-4.54-2.9,0-5.76,.29-8.57,.85,4.31-15.29,18.33-26.23,34.73-26.23,3.07,0,6.09,.38,8.98,1.13,.02,0,.04,0,.05,0,.21,.05,.41,.08,.62,.1,.05,0,.11,0,.16,.01,.04,0,.08,0,.12,0,.18,0,.35-.02,.53-.04,.04,0,.07-.01,.11-.02,.19-.03,.38-.08,.56-.14,.04-.01,.08-.02,.12-.04,.21-.08,.41-.17,.6-.28,.03-.02,.05-.03,.08-.05,.17-.1,.33-.22,.49-.35,.03-.02,.06-.05,.09-.07,.16-.15,.31-.3,.45-.48,.03-.04,.05-.08,.08-.12,.06-.08,.12-.16,.17-.25,6.63-10.84,18.16-17.32,30.85-17.32,9.44,0,18.52,3.73,25.25,10.3,.19,.41,.44,.81,.78,1.15,9.16,9.16,14.2,21.34,14.2,34.29,0,6.04-1.1,11.92-3.26,17.49-10.38,8.13-17.44,19.41-20.21,32.19-11.31-8.39-25.15-12.19-39.24-10.72-2.1,.22-3.63,2.1-3.41,4.21,.22,2.1,2.11,3.63,4.21,3.41,12.88-1.35,25.52,2.4,35.58,10.56,4.89,3.96,8.9,8.74,11.91,14.19,.7,1.26,2.01,1.98,3.36,1.98,.63,0,1.26-.15,1.85-.48,1.85-1.02,2.52-3.35,1.5-5.2-2.46-4.45-5.5-8.51-9.06-12.12,.05-.18,.11-.37,.13-.57,1.8-12.83,8.48-24.19,18.82-31.98,5.02-3.79,10.62-6.53,16.65-8.14,2.04-.55,3.26-2.65,2.71-4.69-.55-2.04-2.65-3.26-4.69-2.71-3.58,.96-7.03,2.26-10.32,3.9,.76-3.7,1.15-7.48,1.15-11.31,0-13.58-4.8-26.42-13.58-36.6,6.8-9.21,17.46-14.65,29.03-14.65,16.09,0,30.37,10.79,34.73,26.25,0,.01,0,.02,.01,.03,.02,.06,.04,.11,.06,.17,.06,.17,.12,.34,.2,.49,.03,.07,.07,.13,.11,.19,.08,.14,.17,.28,.27,.41,.04,.06,.09,.11,.14,.17,.11,.13,.22,.24,.35,.35,.05,.04,.1,.09,.15,.13,.14,.11,.29,.21,.44,.3,.04,.03,.08,.06,.13,.08,.2,.11,.41,.2,.63,.27,.04,.01,.08,.02,.12,.03,.18,.05,.37,.1,.56,.12,.07,.01,.15,.01,.23,.02,.1,0,.19,.02,.29,.02,.08,0,.16-.01,.24-.02,.03,0,.06,0,.09,0,.84-.07,1.7-.11,2.56-.11,18.02,0,33.22,13.41,35.71,30.97-6.54,.77-12.85,2.66-18.79,5.67-13.12,6.64-22.91,17.91-27.69,31.78-6.91-.7-13.96-.12-20.85,1.82-2.04,.57-3.22,2.69-2.65,4.72,.57,2.04,2.68,3.22,4.72,2.65,12.47-3.5,25.56-1.93,36.85,4.41,5.49,3.08,10.24,7.11,14.13,11.98,.76,.95,1.87,1.44,2.99,1.44,.84,0,1.68-.27,2.39-.84,1.65-1.32,1.92-3.73,.6-5.38-4.51-5.64-10.02-10.31-16.37-13.88-4.51-2.53-9.27-4.39-14.16-5.6,4.27-11.44,12.54-20.72,23.5-26.27,5.61-2.84,11.61-4.55,17.82-5.07,.99-.08,1.84-.54,2.47-1.21,19.56,.4,35.35,16.42,35.35,36.08,0,11.45-5.25,21.97-14.42,28.87Z"/></g></svg>