<?xml version="1.0" encoding="UTF-8"?><svg id="Layer_2" xmlns="http://www.w3.org/2000/svg" viewBox="0 0 1996.14 1874.56"><defs><style>.cls-1{fill:#345a9a;}</style></defs><g id="Ebene_1"><g><path class="cls-1" d="M1736.7,912.56c-22.09,0-40,17.91-40,40v842h-469.42v-501.29c0-22.09-17.91-40-40-40h-378.42c-22.09,0-40,17.91-40,40v501.29H299.44V952.56c0-22.09-17.91-40-40-40s-40,17.91-40,40v882c0,22.09,17.91,40,40,40H808.86c22.09,0,40-17.91,40-40v-501.29h298.42v501.29c0,22.09,17.91,40,40,40h549.42c22.09,0,40-17.91,40-40V952.56c0-22.09-17.91-40-40-40Z"/><path class="cls-1" d="M1983.01,879.04L1024.94,10.37c-15.25-13.82-38.49-13.82-53.74,0L13.13,879.04c-16.37,14.84-17.6,40.14-2.77,56.5,14.84,16.37,40.14,17.6,56.5,2.77L998.07,93.99l931.2,844.31c7.66,6.94,17.27,10.37,26.86,10.37,10.89,0,21.75-4.43,29.64-13.13,14.84-16.37,13.6-41.66-2.76-56.5Z"/><path class="cls-1" d="M323.02,482.06c22.09,0,40-17.91,40-40V115.56h197.56v109.19c0,22.09,17.91,40,40,40s40-17.91,40-40V75.56c0-22.09-17.91-40-40-40H323.02c-22.09,0-40,17.91-40,40V442.06c0,22.09,17.91,40,40,40Z"/></g></g></svg>